<svg width="286" height="65" viewBox="0 0 286 65" fill="none" xmlns="http://www.w3.org/2000/svg">
<path d="M59.0344 19.3457V26.5599H70.6823V30.6623H59.0344V41.4853H54.6006V15.214H72.1113L72.0733 19.3457H59.0344Z" fill="#002538"/>
<path d="M85.3747 25.4328C83.2945 25.4328 81.7285 26.1094 80.6769 27.4625C79.6252 28.8156 79.0994 30.63 79.0994 32.9059V41.4731H74.89V21.4875H79.0994V25.5088C79.7587 24.2748 80.706 23.218 81.8608 22.4281C82.9425 21.654 84.2314 21.2217 85.5611 21.1872L85.5991 25.4328H85.3747Z" fill="#002538"/>
<path d="M106.603 33.3236H90.9337C91.0338 34.7768 91.6977 35.9481 92.9254 36.8375C94.1476 37.7251 95.6244 38.1932 97.1348 38.1716C99.6384 38.1716 101.542 37.3823 102.846 35.8037L105.25 38.4287C103.096 40.6586 100.29 41.7735 96.8327 41.7735C94.0288 41.7735 91.643 40.8404 89.6755 38.9741C87.708 37.1079 86.7249 34.603 86.726 31.4596C86.726 28.3151 87.7282 25.816 89.7325 23.9624C91.6383 22.1483 94.1775 21.1505 96.8086 21.1821C99.5251 21.1821 101.835 22.0024 103.74 23.6432C105.644 25.2839 106.596 27.5448 106.596 30.4258L106.603 33.3236ZM90.9337 30.0168H102.395C102.395 28.3393 101.869 27.0495 100.816 26.1474C99.7633 25.2453 98.4671 24.7943 96.9277 24.7943C95.4239 24.7813 93.9601 25.2783 92.7752 26.2044C91.5475 27.1432 90.9337 28.4141 90.9337 30.0168Z" fill="#002538"/>
<path d="M128.019 33.3235H112.352C112.452 34.7767 113.116 35.948 114.343 36.8374C115.565 37.7248 117.041 38.1929 118.551 38.1715C121.055 38.1715 122.958 37.3822 124.262 35.8036L126.668 38.4287C124.512 40.662 121.708 41.7786 118.256 41.7786C115.45 41.7786 113.063 40.8455 111.097 38.9792C109.131 37.113 108.146 34.6082 108.142 31.4648C108.142 28.3202 109.145 25.8212 111.149 23.9676C113.055 22.1534 115.594 21.1557 118.225 21.1872C120.944 21.1872 123.255 22.0076 125.158 23.6483C127.061 25.289 128.012 27.5499 128.012 30.431L128.019 33.3235ZM112.352 30.0168H123.812C123.812 28.3392 123.286 27.0494 122.234 26.1474C121.183 25.2453 119.886 24.7943 118.344 24.7943C116.844 24.7836 115.384 25.2805 114.202 26.2043C112.967 27.1432 112.351 28.414 112.352 30.0168Z" fill="#002538"/>
<path d="M132.379 38.9224C130.5 37.0181 129.56 34.5133 129.56 31.4079C129.56 28.3025 130.525 25.8224 132.453 23.9676C133.361 23.0684 134.439 22.3593 135.625 21.8819C136.81 21.4045 138.079 21.1683 139.357 21.1873C142.025 21.1873 144.173 22.3148 145.801 24.57V13.5969H150.009V41.4784H145.792V38.4719C144.239 40.6764 141.972 41.7787 138.991 41.7787C136.461 41.7787 134.257 40.8266 132.379 38.9224ZM133.76 31.577C133.76 33.4928 134.373 35.0518 135.601 36.2542C136.162 36.8295 136.833 37.2857 137.575 37.5956C138.316 37.9055 139.112 38.0626 139.916 38.0577C140.71 38.0725 141.497 37.9177 142.226 37.6037C142.956 37.2897 143.609 36.8237 144.144 36.2369C145.295 35.0219 145.87 33.4623 145.87 31.558C145.87 29.6538 145.295 28.0631 144.144 26.786C143.62 26.1754 142.968 25.6874 142.234 25.3564C141.501 25.0254 140.703 24.8594 139.898 24.8703C138.219 24.8703 136.78 25.5089 135.584 26.786C134.387 28.0631 133.782 29.6602 133.768 31.577H133.76Z" fill="#002538"/>
<path d="M171.004 38.7911C169 40.7828 166.495 41.7786 163.49 41.7786C160.484 41.7786 157.979 40.7828 155.975 38.7911C153.972 36.7995 152.97 34.3631 152.969 31.482C152.967 28.601 153.97 26.1652 155.975 24.1747C157.983 22.183 160.488 21.1872 163.49 21.1872C166.491 21.1872 168.996 22.183 171.004 24.1747C173.008 26.1663 174.01 28.6021 174.01 31.482C174.01 34.362 173.008 36.7983 171.004 38.7911ZM158.963 36.2023C160.151 37.4173 161.66 38.0248 163.49 38.0248C165.319 38.0248 166.829 37.4173 168.018 36.2023C169.207 34.9873 169.802 33.415 169.803 31.4855C169.804 29.556 169.209 27.9843 168.018 26.7704C166.83 25.5531 165.32 24.9444 163.49 24.9444C161.659 24.9444 160.15 25.5519 158.963 26.7669C157.772 27.9831 157.177 29.5548 157.178 31.482C157.179 33.4093 157.774 34.9815 158.963 36.1989V36.2023Z" fill="#002538"/>
<path d="M181.187 30.6623V41.4852H176.979V21.4875H181.187V25.1395C181.78 23.9206 182.73 22.9115 183.912 22.2469C185.103 21.5516 186.459 21.1881 187.838 21.1941C190.993 21.1941 193.134 22.4966 194.262 25.1015C196.241 22.4977 198.708 21.1953 201.664 21.1941C203.919 21.1941 205.742 21.8845 207.132 23.2652C208.522 24.6459 209.214 26.6335 209.21 29.2281V41.4818H205.002V30.5052C205.002 26.8233 203.474 24.9824 200.418 24.9824C199.045 24.9621 197.713 25.4509 196.68 26.3545C195.614 27.2749 195.057 28.6085 195.007 30.3551V41.4783H190.8V30.5052C190.8 28.6033 190.461 27.2071 189.785 26.3165C189.108 25.426 188.047 24.9812 186.601 24.9824C185.197 24.9635 183.839 25.4807 182.804 26.4287C181.726 27.394 181.187 28.8052 181.187 30.6623Z" fill="#002538"/>
<path d="M218.875 30.6622V41.4835H214.665V21.4875H218.875V25.1394C219.527 23.946 220.489 22.95 221.659 22.2558C222.829 21.5617 224.164 21.195 225.524 21.1941C227.778 21.1941 229.601 21.8844 230.992 23.2651C232.383 24.6458 233.078 26.6369 233.077 29.2384V41.4921H228.869V30.5052C228.869 26.8233 227.341 24.9824 224.285 24.9824C222.882 24.9635 221.524 25.4807 220.488 26.4287C219.412 27.394 218.875 28.8052 218.875 30.6622Z" fill="#F88D00"/>
<path d="M255.738 33.3235H240.07C240.169 34.7767 240.832 35.948 242.06 36.8374C243.282 37.7251 244.759 38.1931 246.269 38.1715C248.773 38.1715 250.677 37.3822 251.98 35.8036L254.384 38.4287C252.227 40.662 249.423 41.7786 245.971 41.7786C243.165 41.7786 240.778 40.8455 238.812 38.9792C236.846 37.113 235.862 34.6082 235.862 31.4648C235.862 28.3202 236.865 25.8212 238.869 23.9676C240.775 22.1534 243.314 21.1557 245.945 21.1872C248.661 21.1872 250.972 22.0076 252.876 23.6483C254.78 25.289 255.732 27.5499 255.732 30.431L255.738 33.3235ZM240.07 30.0168H251.53C251.53 28.3392 251.003 27.0494 249.951 26.1474C248.898 25.2453 247.602 24.7943 246.062 24.7943C244.559 24.7812 243.095 25.2783 241.91 26.2043C240.682 27.1432 240.069 28.414 240.07 30.0168Z" fill="#F88D00"/>
<path d="M275.276 38.7911C273.273 40.7828 270.768 41.7786 267.762 41.7786C264.755 41.7786 262.25 40.7828 260.247 38.7911C258.242 36.7995 257.24 34.3631 257.241 31.482C257.242 28.601 258.244 26.1652 260.247 24.1747C262.25 22.183 264.755 21.1872 267.762 21.1872C270.768 21.1872 273.273 22.183 275.276 24.1747C277.28 26.1663 278.283 28.6021 278.283 31.482C278.283 34.362 277.28 36.7983 275.276 38.7911ZM263.233 36.2023C264.424 37.4173 265.933 38.0248 267.762 38.0248C269.59 38.0248 271.099 37.4173 272.289 36.2023C273.478 34.9873 274.073 33.415 274.073 31.4855C274.073 29.556 273.478 27.9843 272.289 26.7704C271.099 25.5554 269.59 24.9479 267.762 24.9479C265.933 24.9479 264.423 25.5542 263.23 26.7669C262.041 27.982 261.446 29.5537 261.445 31.482C261.444 33.4104 262.039 34.9827 263.23 36.1989L263.233 36.2023Z" fill="#F88D00"/>
<path d="M25.271 25.0911C26.4947 25.3051 27.5509 24.7822 29.0559 25.0756C26.5775 22.832 23.4002 21.919 20.2159 21.3304C23.8109 22.7923 23.0533 24.7045 25.271 25.0911Z" fill="#002538"/>
<path d="M28.231 6.5C28.231 6.5 14.6104 15.2295 7.80005 15.2295V17.965C8.48004 17.7924 9.16176 17.6457 9.84521 17.5197C21.84 15.2761 33.0496 18.0996 34.9412 26.7531L34.0472 27.5678C36.5048 28.6223 39.2438 30.2619 40.1896 32.5573C41.0836 34.7301 40.3207 37.5468 37.901 39.2243C38.5413 36.9807 36.1959 35.7553 33.0686 35.65C29.3286 35.5258 23.4382 36.5768 18.6265 40.1511C18.6265 40.1511 22.8704 38.2406 27.6304 37.9075C26.391 39.0368 25.4117 40.4218 24.7602 41.9667C23.647 44.5556 23.3416 47.4895 23.4814 50.3286C23.5987 52.7552 24.2321 54.733 25.2745 56.2397C26.2928 56.8277 27.3479 57.403 28.4398 57.9656C41.2941 51.3952 49.0744 42.6623 49.0744 34.8717V15.2295C42.1243 15.2295 28.231 6.5 28.231 6.5Z" fill="#002538"/>
</svg>
